<?xml version="1.0" encoding="UTF-8" standalone="no"?>
<svg viewBox="0 0 750.13794 733.78259" xmlns="http://www.w3.org/2000/svg" xmlns:xlink="http://www.w3.org/1999/xlink">
<defs>
<linearGradient>
<stop offset="0" stop-color="#ffb142"/>
<stop offset="1" stop-color="#c87600"/>
</linearGradient>
<linearGradient gradientUnits="userSpaceOnUse" x1="219.61412" x2="219.61409" xlink:href="#linearGradient4098" y1="354.02182" y2="362.27768"/>
<linearGradient gradientUnits="userSpaceOnUse" x1="238.98254" x2="238.98251" xlink:href="#linearGradient4098" y1="354.02182" y2="362.27768"/>
<linearGradient gradientUnits="userSpaceOnUse" x1="229.43869" x2="229.43866" xlink:href="#linearGradient4098" y1="354.02182" y2="362.27768"/>
<linearGradient gradientUnits="userSpaceOnUse" x1="176.38606" x2="176.38603" xlink:href="#linearGradient4098" y1="354.02182" y2="362.27768"/>
<linearGradient gradientUnits="userSpaceOnUse" x1="195.75447" x2="195.75444" xlink:href="#linearGradient4098" y1="354.02182" y2="362.27768"/>
<linearGradient gradientUnits="userSpaceOnUse" x1="186.21062" x2="186.21059" xlink:href="#linearGradient4098" y1="354.02182" y2="362.27768"/>
<linearGradient gradientUnits="userSpaceOnUse" x1="347.47728" x2="355.96724" xlink:href="#linearGradient4098"/>
</defs>
<g transform="translate(-8.26437,-252.16655)">
<path d="m373.49231,935.28604a28.28532,45.70076 0 0,1 -56.57063,0 28.28532,45.70076 0 1,1 56.57063,0z" fill="#fff" stroke="#000" stroke-linecap="round" stroke-linejoin="round" stroke-width="9.92467"/>
<path d="m305.01207,935.28604a28.28532,45.70076 0 0,1 -56.57063,0 28.28532,45.70076 0 1,1 56.57063,0z" fill="#fff" stroke="#000" stroke-linecap="round" stroke-linejoin="round" stroke-width="9.92467"/>
<path d="m338.75596,935.28604a28.28532,45.70076 0 0,1 -56.57063,0 28.28532,45.70076 0 1,1 56.57063,0z" fill="#fff" stroke="#000" stroke-linecap="round" stroke-linejoin="round" stroke-width="9.92467"/>
<path d="m526.33227,935.28604a28.28532,45.70076 0 0,1 -56.57063,0 28.28532,45.70076 0 1,1 56.57063,0z" fill="#fff" stroke="#000" stroke-linecap="round" stroke-linejoin="round" stroke-width="9.92467"/>
<path d="m457.85203,935.28604a28.28532,45.70076 0 0,1 -56.57063,0 28.28532,45.70076 0 1,1 56.57063,0z" fill="#fff" stroke="#000" stroke-linecap="round" stroke-linejoin="round" stroke-width="9.92467"/>
<path d="m491.59592,935.28604a28.28532,45.70076 0 0,1 -56.57063,0 28.28532,45.70076 0 1,1 56.57063,0z" fill="#fff" stroke="#000" stroke-linecap="round" stroke-linejoin="round" stroke-width="9.92467"/>
<path d="m276.72676,889.57864c-11.52533,0-21.39821,11.17588-25.80415,27.16879 37.65635,10.07214 79.02852,15.94726 122.50767,16.74789-.59224-24.38455-12.98718-43.91666-28.22328-43.91668-6.55209,0-12.57119,3.62741-17.36818,9.67656-4.79699-6.04915-10.81609-9.67654-17.36818-9.67656-6.32356,0-12.15983,3.384-16.87194,9.05626-4.71212-5.67226-10.54838-9.05624-16.87194-9.05626zm152.83995,0c-15.19707,0-27.57213,19.43344-28.22328,43.73059 43.43151-1.39807 84.58967-7.90709 121.94941-18.54673-4.65904-14.91802-14.2064-25.18384-25.24589-25.18386-6.55209,0-12.57118,3.62741-17.36817,9.67656-4.797-6.04915-10.81609-9.67654-17.36818-9.67656-6.32357,0-12.15983,3.384-16.87194,9.05626-4.71212-5.67226-10.54838-9.05624-16.87195-9.05626z" fill-opacity=".31373"/>
<path d="m712.238,585.7629a328.63401,328.63401 0 0,1 -657.26803,0 328.63401,328.63401 0 1,1 657.26803,0z" fill="none" stroke="#000" stroke-linecap="round" stroke-width="9.92467"/>
<path d="m546.04664,750.07985c-52.60076-9.77297-4.46092,42.93642-12.52643,61.99492-31.88474-15.67783-19.73563,36.2251-34.15397,50.64346-27.32042-1.46111-31.58495,26.08845-50.64345,34.15396-23.0284-12.77629-40.00893,12.52645-61.99492,12.52645s-34.99668-24.31026-61.99492-12.52645c-19.0585-8.06551-23.32303-34.62262-50.64345-34.15396-14.41836-14.41836-12.19392-69.29872-34.15399-50.64346-8.06551-19.0585 29.15719-75.73774-12.52643-61.99492 0-21.98598 44.15961-62.78574 12.52643-61.99491 8.06553-19.05851 48.51718-33.2477 34.15399-50.64346 28.83669-28.83669 68.6664-46.68039 112.63837-46.68039s83.80168,17.8437 112.63837,46.68039c-21.31048,10.44848 26.08846,31.58495 34.15397,50.64346-35.60306-1.7833 12.52643,40.00893 12.52643,61.99491z" fill="#fff" stroke="#000" stroke-linecap="round" stroke-linejoin="round" stroke-width="9.92467"/>
<path d="m673.96177,431.80312c3.93138,20.31077 6.01684,41.25772 6.01684,62.71153 0,7.40358-.2616,14.73831-.74435,22.02036-7.28986-.36286-15.04245.0377-23.32299,1.24059-69.90034,14.88433-40.04269,102.54977-58.24542,194.27546-60.22753,68.1402-148.29332,111.0943-246.31796,111.0943-60.28899,0-116.77695-16.29087-165.36986-44.66102-47.00167-110.04991 16.03074-229.5867-66.80545-250.22581-91.52626-16.52529-126.97721,68.3934-67.79792,195.64011 32.67396,70.25523 86.7871,104.76437 126.6016,118.16563 56.29944,45.25724 127.81357,72.32605 205.62681,72.32605 91.20683,0 173.79529-37.19656 233.35387-97.26179 34.64411-17.3036 73.16774-48.81938 99.92904-101.5418 50.04496-98.59349 40.46236-172.84496-10.85511-193.40706-6.29196-32.02892-17.2014-62.41013-32.0691-90.37655z" fill-opacity=".31373" fill-rule="evenodd"/>
<path d="m118.89781,512.28227c95.49758,34.33943-28.11349,186.86711 75.06851,319.95514 19.07201,24.59981-114.86411,4.15005-162.21436-132.16696-46.04713-132.56536-2.24766-213.45803 87.14585-187.78818z" fill="#fff" fill-rule="evenodd" stroke="#000" stroke-width="9.92467"/>
<path d="m647.76889,512.28227c-95.49758,34.33943 28.11349,186.86711-75.06851,319.95514-19.07201,24.59981 114.86411,4.15005 162.21436-132.16696 46.04713-132.56536 2.24766-213.45803-87.14585-187.78818z" fill="#fff" fill-rule="evenodd" stroke="#000" stroke-width="9.92467"/>
<path d="m612.68478,494.32369c26.57565-9.1486 54.03198,15.05343 59.28043,28.14624-26.82099-6.85257-39.14218-8.78493-46.08697-2.74064 2.99078,6.69208 34.55422,13.38225 44.33814,57.30734-24.67029-17.10341-44.27107-36.87129-52.14901-28.74805 5.71974,9.99181 12.30562,28.77637 7.86742,47.40175-14.17539-18.70688-28.65993-38.46494-41.96453-38.99964" fill="#fff" fill-rule="evenodd" stroke="#000" stroke-linecap="round" stroke-linejoin="round" stroke-width="9.92467"/>
<path d="m292.39434,332.08797c-61.99836,0-112.35392,58.22089-112.35392,129.95706s50.35556,129.95705 112.35392,129.95705c36.43476,0 68.76685-20.12902 89.2918-51.26978 20.52355,31.16337 52.92606,51.26978 89.37628,51.26978 61.99836,0 112.35389-58.22095 112.35391-129.95705s-50.35555-129.95704-112.35391-129.95706c-36.44597,0-68.85235,20.11263-89.37628,51.26981-20.52535-31.13406-52.86166-51.26979-89.2918-51.26981z" fill="#fff" stroke="#000" stroke-linecap="round" stroke-width="9.92467"/>
<path d="m385.08973,552.23497c-18.43605,0-38.47524,20.49892-37.67368,33.44557s32.86428,66.89112 40.07837,66.89112 35.26897-52.86557 34.46741-67.97001-24.8486-33.44559-36.8721-32.36668z" fill-opacity=".31373" fill-rule="evenodd"/>
<path d="m380.87905,531.1771c-18.43605,0-38.47524,18.4722-37.67368,30.13883s32.86428,60.27767 40.07837,60.27767 35.26897-47.6388 34.46741-61.24989-24.8486-30.13885-36.8721-29.16661z" fill="#fff" fill-rule="evenodd" stroke="#000" stroke-width="9.92467"/>
<path d="m374.58843,470.83656a32.52733,32.52733 0 1,1 -65.05466,0 32.52733,32.52733 0 1,1 65.05466,0z" stroke="#000" stroke-linecap="round" stroke-width="9.92467"/>
<path d="m153.44934,494.32369c-26.57565-9.1486-54.03198,15.05343-59.28042,28.14624 26.82099-6.85257 39.14217-8.78493 46.08696-2.74064-2.99078,6.69208-34.55422,13.38225-44.33814,57.30734 24.6703-17.10341 44.27107-36.87129 52.14902-28.74805-5.71975,9.99181-12.30563,28.77637-7.86743,47.40175 14.17539-18.70688 28.65993-38.46494 41.96453-38.99964" fill="#fff" fill-rule="evenodd" stroke="#000" stroke-linecap="round" stroke-linejoin="round" stroke-width="9.92467"/>
<path d="m409.16266,353.95943c26.35183-63.835 70.79386-72.47635 70.79386-72.47635s-24.71899,33.29789-2.33026,24.03507c34.66748-14.34286 144.89377,30.60434 144.89377,30.60434s-146.04046-33.99403-213.35737,17.83694z" fill="#fff" fill-rule="evenodd" stroke="#000" stroke-linejoin="round" stroke-width="9.92467"/>
<path d="m348.73905,348.00464c-26.35183-63.83501-70.79386-72.47637-70.79386-72.47637s24.719,33.29791 2.33027,24.03508c-34.66749-14.34286-144.89377,30.60433-144.89377,30.60433s146.04045-33.99402 213.35736,17.83696z" fill="#fff" fill-rule="evenodd" stroke="#000" stroke-linejoin="round" stroke-width="9.92467"/>
<path d="m456.96321,470.83656a32.52733,32.52733 0 1,1 -65.05466,0 32.52733,32.52733 0 1,1 65.05466,0z" stroke="#000" stroke-linecap="round" stroke-width="9.92467"/>
<path d="m338.75595,459.44522a8.43597,8.43597 0 0,1 -16.87195,0 8.43597,8.43597 0 1,1 16.87195,0z" fill="#fff"/>
<path d="m421.13073,459.44522a8.43597,8.43597 0 0,1 -16.87194,0 8.43597,8.43597 0 1,1 16.87194,0z" fill="#fff"/>
<path d="m679.04817,507.54078c-.81901-.001-1.65073.0407-2.48117.0619 32.17992,25.93226 45.79905,85.94195 29.33981,169.40175-21.88009,110.94742-106.346,158.81062-134.41728,161.33796 9.11504,12.95454 121.0232-16.12908 163.44695-138.26309 40.29125-115.99469 11.7523-192.43966-55.88831-192.53865z" fill-opacity=".31373" fill-rule="evenodd"/>
<path d="m16.32816,571.43086c-6.85157,32.76295-2.57751,76.76268 15.44527,128.64857 47.35026,136.317 181.27837,156.78402 162.20637,132.18423-8.15593-10.51984-14.92749-21.18825-20.46964-31.88301-37.61749-9.0144-107.28133-48.38522-138.75933-139.00745-11.67052-33.59833-17.5744-63.87608-18.42267-89.94234zm141.48861,12.59193c-1.7524,16.94354-3.68446,34.95844-4.52813,53.84135 1.97161-19.43376 4.12746-37.59691 4.52813-53.84135z" fill-opacity=".31373" fill-rule="evenodd"/>
</g>
</svg>
